<?xml version="1.0" encoding="utf-8"?>
<!-- Generator: Adobe Illustrator 16.0.0, SVG Export Plug-In . SVG Version: 6.00 Build 0)  -->
<!DOCTYPE svg PUBLIC "-//W3C//DTD SVG 1.1//EN" "http://www.w3.org/Graphics/SVG/1.1/DTD/svg11.dtd">
<svg version="1.1" id="Layer_1" xmlns="http://www.w3.org/2000/svg" xmlns:xlink="http://www.w3.org/1999/xlink" x="0px" y="0px"
	 width="1280px" height="800px" viewBox="0 0 1280 800" enable-background="new 0 0 1280 800" xml:space="preserve">
<g>
	<polygon fill="none" stroke="#A48794" stroke-width="5" stroke-miterlimit="10" points="656.652,170.613 656.743,105.485 
		713.117,72.873 769.4,105.387 769.31,170.515 712.936,203.128 	"/>
	<polygon fill="none" stroke="#A48794" stroke-width="5" stroke-miterlimit="10" points="680.526,195.5 648.026,138.5 680.526,81.5 
		745.526,81.5 778.026,138.5 745.526,195.5 	"/>
</g>
<polygon fill="none" stroke="#C2B79F" stroke-width="16" stroke-miterlimit="10" points="1343.941,65.828 1321.381,215.43 
	1180.542,270.692 1062.263,176.354 1084.823,26.752 1225.661,-28.512 "/>
<g>
	<polygon fill="none" stroke="#B6D6F2" stroke-width="7" stroke-miterlimit="10" points="497.652,625.613 497.743,560.485 
		554.117,527.873 610.4,560.387 610.31,625.515 553.936,658.128 	"/>
	<polygon fill="none" stroke="#B6D6F2" stroke-width="7" stroke-miterlimit="10" points="521.526,650.5 489.026,593.5 
		521.526,536.5 586.526,536.5 619.026,593.5 586.526,650.5 	"/>
</g>
<g>
	<polygon fill="none" stroke="#B6D6F2" stroke-width="5" stroke-miterlimit="10" points="245.605,857.243 245.801,716.968 
		367.222,646.727 488.447,716.756 488.252,857.031 366.831,927.275 	"/>
	<polygon fill="none" stroke="#B6D6F2" stroke-width="5" stroke-miterlimit="10" points="297.026,910.5 227.026,788 297.026,665.5 
		437.026,665.5 507.026,788 437.026,910.5 	"/>
</g>
<g opacity="0.1">
	<polygon fill="none" stroke="#707070" stroke-width="9" stroke-miterlimit="10" points="-352.891,312.693 -352.333,-88.094 
		-5.416,-288.783 340.943,-88.699 340.385,312.087 -6.533,512.785 	"/>
	<polygon fill="none" stroke="#707070" stroke-width="9" stroke-miterlimit="10" points="-205.974,464.5 -405.974,114.5 
		-205.974,-235.5 194.026,-235.5 394.026,114.5 194.026,464.5 	"/>
</g>
<g>
	<polygon fill="none" stroke="#929AA0" stroke-width="0.25" stroke-miterlimit="10" points="486.109,180.693 486.667,-220.094 
		833.584,-420.783 1179.943,-220.699 1179.385,180.088 832.467,380.785 	"/>
	<polygon fill="none" stroke="#929AA0" stroke-miterlimit="10" points="633.026,332.5 433.026,-17.5 633.026,-367.5 
		1033.026,-367.5 1233.026,-17.5 1033.026,332.5 	"/>
</g>
<polygon opacity="0.1" fill="none" stroke="#C2B79F" stroke-width="60" stroke-miterlimit="10" points="1240.535,457.079 
	1054.511,627.307 814.076,551.319 759.667,305.104 945.691,134.876 1186.125,210.863 "/>
<polygon fill="#A48794" stroke="#C2B79F" stroke-width="16" stroke-miterlimit="10" points="1394.95,856.501 1302.876,1091.246 
	1053.544,1128.883 896.287,931.773 988.36,697.028 1237.69,659.395 "/>
<polygon fill="none" stroke="#C2B79F" stroke-width="60" stroke-miterlimit="10" points="433.101,361.19 336.594,594.146 
	86.594,627.048 -66.899,426.991 29.608,194.035 279.608,161.134 "/>
</svg>
