<?xml version="1.0" encoding="utf-8"?>
<!-- Generator: Adobe Illustrator 16.0.0, SVG Export Plug-In . SVG Version: 6.00 Build 0)  -->
<!DOCTYPE svg PUBLIC "-//W3C//DTD SVG 1.1//EN" "http://www.w3.org/Graphics/SVG/1.1/DTD/svg11.dtd">
<svg version="1.1" id="Layer_1" xmlns="http://www.w3.org/2000/svg" xmlns:xlink="http://www.w3.org/1999/xlink" x="0px" y="0px"
	 width="1280px" height="800px" viewBox="0 0 1280 800" enable-background="new 0 0 1280 800" xml:space="preserve">
<g opacity="0.85">
	<polygon fill="none" stroke="#A48794" stroke-width="5" stroke-miterlimit="10" points="618.652,97.613 618.743,32.485 
		675.117,-0.127 731.4,32.387 731.31,97.515 674.936,130.128 	"/>
	<polygon fill="none" stroke="#A48794" stroke-width="5" stroke-miterlimit="10" points="642.526,122.5 610.026,65.5 642.526,8.5 
		707.526,8.5 740.026,65.5 707.526,122.5 	"/>
</g>
<polygon opacity="0.3" fill="none" stroke="#C2B79F" stroke-width="16" stroke-miterlimit="10" points="1380.941,-82.172 
	1358.381,67.43 1217.542,122.692 1099.263,28.354 1121.823,-121.248 1262.661,-176.512 "/>
<g opacity="0.6">
	<polygon fill="none" stroke="#B6D6F2" stroke-width="7" stroke-miterlimit="10" points="506.652,716.613 506.743,651.485 
		563.117,618.873 619.4,651.387 619.31,716.515 562.936,749.128 	"/>
	<polygon fill="none" stroke="#B6D6F2" stroke-width="7" stroke-miterlimit="10" points="530.526,741.5 498.026,684.5 
		530.526,627.5 595.526,627.5 628.026,684.5 595.526,741.5 	"/>
</g>
<g>
	<polygon fill="none" stroke="#B6D6F2" stroke-width="5" stroke-miterlimit="10" points="1.605,203.243 1.801,62.968 
		123.222,-7.273 244.447,62.756 244.252,203.031 122.831,273.275 	"/>
	<polygon fill="none" stroke="#B6D6F2" stroke-width="5" stroke-miterlimit="10" points="53.026,256.5 -16.974,134 53.026,11.5 
		193.026,11.5 263.026,134 193.026,256.5 	"/>
</g>
<g>
	<polygon fill="none" stroke="#929AA0" stroke-width="0.25" stroke-miterlimit="10" points="-346.891,952.693 -346.333,551.906 
		0.584,351.217 346.943,551.301 346.385,952.088 -0.533,1152.785 	"/>
	<polygon fill="none" stroke="#929AA0" stroke-miterlimit="10" points="-199.974,1104.5 -399.974,754.5 -199.974,404.5 
		200.026,404.5 400.026,754.5 200.026,1104.5 	"/>
</g>
<polygon opacity="0.1" fill="none" stroke="#C2B79F" stroke-width="60" stroke-miterlimit="10" points="1207.121,287.555 
	1140.136,530.65 896.115,594.188 719.082,414.628 786.068,171.532 1030.088,107.996 "/>
<polygon opacity="0.1" fill="#A48794" stroke="#C2B79F" stroke-width="16" stroke-miterlimit="10" points="1394.95,856.501 
	1302.876,1091.246 1053.544,1128.883 896.287,931.773 988.36,697.028 1237.69,659.395 "/>
<path fill="none" stroke="#C2B79F" stroke-width="60" stroke-miterlimit="10" d="M433.101,361.19"/>
<path fill="none" stroke="#C2B79F" stroke-width="60" stroke-miterlimit="10" d="M279.608,161.134"/>
<path fill="none" stroke="#C2B79F" stroke-width="60" stroke-miterlimit="10" d="M-66.899,426.991"/>
<path fill="none" stroke="#C2B79F" stroke-width="60" stroke-miterlimit="10" d="M336.594,594.146"/>
<polygon opacity="0.1" fill="none" stroke="#9AD5E2" stroke-width="60" stroke-miterlimit="10" points="448.125,465.6 
	298.126,396.392 283.062,231.883 417.998,136.583 567.998,205.792 583.062,370.299 "/>
<g>
	<polygon fill="none" stroke="#929AA0" stroke-width="0.25" stroke-miterlimit="10" points="1240.109,653.693 1240.668,252.906 
		1587.584,52.217 1933.943,252.301 1933.385,653.088 1586.467,853.785 	"/>
	<polygon fill="none" stroke="#929AA0" stroke-miterlimit="10" points="1387.026,805.5 1187.026,455.5 1387.026,105.5 
		1787.026,105.5 1987.026,455.5 1787.026,805.5 	"/>
</g>
<path fill="none" stroke="#C2B79F" stroke-width="60" stroke-miterlimit="10" d="M1923.594,295.146"/>
</svg>
